<?xml version="1.0" encoding="UTF-8"?>
<svg width="14px" height="14px" viewBox="0 0 14 14" version="1.1" xmlns="http://www.w3.org/2000/svg" xmlns:xlink="http://www.w3.org/1999/xlink">
    <!-- Generator: Sketch 64 (93537) - https://sketch.com -->
    <title>icons/close heading</title>
    <desc>Created with Sketch.</desc>
    <g id="Symbols" stroke="none" stroke-width="1" fill="none" fill-rule="evenodd">
        <g id="pop/heading/no-title" transform="translate(-325.000000, -14.000000)" fill="#232323">
            <g id="icons/close-heading" transform="translate(320.000000, 9.000000)">
                <g id="close" transform="translate(5.000000, 5.000000)">
                    <path d="M7.54988889,7 L13.8856667,0.664222222 C14.0373333,0.512555556 14.0373333,0.266 13.8856667,0.114333333 C13.734,-0.0373333333 13.4874444,-0.0373333333 13.3357778,0.114333333 L7,6.45011111 L0.664222222,0.113555556 C0.512555556,-0.0381111111 0.266,-0.0381111111 0.114333333,0.113555556 C-0.0373333333,0.265222222 -0.0373333333,0.511777778 0.114333333,0.663444444 L6.45011111,7 L0.114333333,13.3357778 C-0.0373333333,13.4874444 -0.0373333333,13.734 0.114333333,13.8856667 C0.189777778,13.9618889 0.289333333,14 0.388888889,14 C0.488444444,14 0.588,13.9618889 0.664222222,13.8864444 L7,7.54988889 L13.3357778,13.8856667 C13.412,13.9618889 13.5115556,14 13.6111111,14 C13.7106667,14 13.8102222,13.9618889 13.8864444,13.8864444 C14.0381111,13.7347778 14.0381111,13.4882222 13.8864444,13.3365556 L7.54988889,7 Z" id="Path"></path>
                </g>
            </g>
        </g>
    </g>
</svg>