<svg width="166" height="27" viewBox="0 0 166 27" fill="none" xmlns="http://www.w3.org/2000/svg">
<path d="M14.596 26H8.512L11.212 20.348H15.82C16.372 20.348 16.9 20.276 17.404 20.132C17.932 19.988 18.316 19.64 18.556 19.088C18.7 18.824 18.772 18.548 18.772 18.26C18.772 17.66 18.556 17.144 18.124 16.712C17.692 16.28 17.164 16.064 16.54 16.064H8.512L11.212 10.412H15.64C16.12 10.412 16.564 10.352 16.972 10.232C17.38 10.112 17.716 9.848 17.98 9.44C18.148 9.128 18.232 8.816 18.232 8.504C18.232 8.024 18.076 7.592 17.764 7.208C17.452 6.8 17.032 6.572 16.504 6.524C15.4 6.5 12.616 6.488 8.152 6.488V26H1.672V8.252C1.408 7.892 1.096 7.556 0.736 7.244L0.16 6.668V0.799998H16.684C17.812 0.799998 18.928 0.907998 20.032 1.124C21.4 1.46 22.516 2.168 23.38 3.248C24.268 4.328 24.748 5.564 24.82 6.956L24.856 7.388C24.856 8.66 24.46 9.848 23.668 10.952C22.9 12.032 21.856 12.716 20.536 13.004C21.04 13.076 21.52 13.232 21.976 13.472C23.08 14.024 23.908 14.828 24.46 15.884C25.036 16.94 25.324 18.068 25.324 19.268C25.324 20.06 25.192 20.84 24.928 21.608C24.472 22.904 23.668 23.936 22.516 24.704C21.388 25.472 20.152 25.892 18.808 25.964L14.596 26ZM56.2961 26H49.1681L48.0881 23.768H39.5921L42.2561 18.224H45.3161L43.0481 13.652L36.8561 26H29.6561L39.1241 8.144L38.2961 6.452L41.3201 0.799998H43.0481L56.2961 26ZM84.2448 26H77.8368L71.7168 17.216L68.6208 21.212V26H62.1408V8.144L60.6288 6.668V0.799998H68.6208V12.464L77.2968 0.799998H83.6328L75.0648 12.572L84.2448 26ZM138.759 26H131.307L127.095 17.54H124.107L126.843 11.888H128.895C129.783 11.888 130.527 11.66 131.127 11.204C131.751 10.724 132.063 10.04 132.063 9.152C132.063 8.264 131.751 7.592 131.127 7.136C130.527 6.68 129.783 6.452 128.895 6.452H123.783V26H115.719V20.132L117.267 18.656V0.799998H129.903C131.775 0.799998 133.359 1.172 134.655 1.916C135.951 2.66 136.935 3.668 137.607 4.94C138.303 6.212 138.651 7.628 138.651 9.188C138.651 10.652 138.399 11.9 137.895 12.932C137.391 13.94 136.755 14.768 135.987 15.416C135.219 16.04 134.427 16.484 133.611 16.748L138.759 26ZM154.518 26.36C149.694 26.36 145.878 25.04 143.07 22.4L146.598 17.324C147.534 18.26 148.71 19.052 150.126 19.7C151.542 20.324 153.126 20.636 154.878 20.636C156.006 20.636 156.894 20.468 157.542 20.132C158.19 19.772 158.514 19.28 158.514 18.656C158.514 18.056 158.082 17.612 157.218 17.324C156.378 17.036 155.31 16.772 154.014 16.532C152.934 16.34 151.806 16.088 150.63 15.776C149.478 15.464 148.386 15.02 147.354 14.444C146.346 13.868 145.518 13.1 144.87 12.14C144.246 11.18 143.934 9.932 143.934 8.396C143.934 6.98 144.33 5.672 145.122 4.472C145.914 3.248 147.078 2.264 148.614 1.52C150.15 0.775999 152.01 0.403999 154.194 0.403999C155.61 0.403999 156.942 0.535999 158.19 0.799998L160.026 0.188L165.426 2.888L160.998 8.756C159.894 7.868 158.682 7.22 157.362 6.812C156.042 6.38 154.746 6.164 153.474 6.164C151.626 6.164 150.702 6.716 150.702 7.82C150.702 8.444 151.122 8.9 151.962 9.188C152.802 9.452 153.858 9.704 155.13 9.944C156.21 10.16 157.338 10.436 158.514 10.772C159.69 11.084 160.794 11.528 161.826 12.104C164.13 13.4 165.282 15.368 165.282 18.008C165.282 20.528 164.358 22.556 162.51 24.092C160.662 25.604 157.998 26.36 154.518 26.36Z" fill="#393939"/>
<path d="M109.386 16.208H96.966L99.738 10.592H106.65L109.386 16.208ZM111.402 26H90.09V8.108L88.578 6.632V0.799998H108.702L111.402 6.452H96.57V20.312H108.702L111.402 26Z" fill="#F8786F"/>
</svg>
